<?xml version="1.0" standalone="no"?>
<!DOCTYPE svg PUBLIC "-//W3C//DTD SVG 20010904//EN"
 "http://www.w3.org/TR/2001/REC-SVG-20010904/DTD/svg10.dtd">
<svg version="1.0" xmlns="http://www.w3.org/2000/svg"
 width="224.000000pt" height="225.000000pt" viewBox="0 0 224.000000 225.000000"
 preserveAspectRatio="xMidYMid meet">

<g transform="translate(0.000000,225.000000) scale(0.100000,-0.100000)"
fill="#000000" stroke="none">
<path d="M840 2239 c-128 -25 -268 -137 -333 -267 -96 -192 -87 -441 21 -608
115 -177 295 -266 472 -235 156 28 290 132 364 283 37 75 66 195 66 273 0 154
-65 312 -174 421 -120 119 -258 164 -416 133z"/>
<path d="M485 1000 c-339 -183 -385 -212 -425 -265 -111 -146 -54 -340 116
-391 38 -11 151 -14 591 -14 l543 0 0 28 c0 15 10 47 21 72 72 159 266 210
403 106 l44 -34 41 42 c44 45 47 57 29 120 -23 77 -89 128 -367 279 -145 79
-261 136 -270 133 -9 -2 -47 -17 -86 -32 -63 -25 -82 -28 -195 -28 -116 -1
-130 1 -190 28 -36 15 -74 30 -85 32 -12 3 -78 -27 -170 -76z"/>
<path d="M2061 589 c-12 -5 -81 -66 -152 -136 l-128 -126 -70 66 c-50 46 -81
68 -106 73 -108 20 -193 -99 -136 -191 37 -61 231 -253 266 -265 69 -23 87
-11 288 189 104 102 195 198 203 213 53 101 -58 220 -165 177z"/>
</g>
</svg>
