<svg xmlns="http://www.w3.org/2000/svg" version="1.1" xmlns:xlink="http://www.w3.org/1999/xlink" xmlns:svgjs="http://svgjs.dev/svgjs" width="1000" height="1000" viewBox="0 0 1000 1000"><rect width="1000" height="1000" fill="#ffffff"></rect><g transform="matrix(0.7,0,0,0.7,149.57575757575756,447.0696297927672)"><svg viewBox="0 0 396 60" data-background-color="#ffffff" preserveAspectRatio="xMidYMid meet" height="151" width="1000" xmlns="http://www.w3.org/2000/svg" xmlns:xlink="http://www.w3.org/1999/xlink"><g id="tight-bounds" transform="matrix(1,0,0,1,0.2400000000000091,0.045621688116995074)"><svg viewBox="0 0 395.52 59.90875662376603" height="59.90875662376603" width="395.52"><g><svg viewBox="0 0 502.64243219476873 76.13441327653271" height="59.90875662376603" width="395.52"><g><rect width="4.968075224306961" height="66.10802889423968" x="89.14892444609798" y="5.013192191146516" fill="#000000" opacity="1" stroke-width="0" stroke="transparent" fill-opacity="1" class="rect-r$-0" data-fill-palette-color="primary" rx="1%" id="r$-0" data-palette-color="#111111"></rect></g><g transform="matrix(1,0,0,1,107.1224321947687,10.522194598999821)"><svg viewBox="0 0 395.52 55.09002407853307" height="55.09002407853307" width="395.52"><g id="textblocktransform"><svg viewBox="0 0 395.52 55.09002407853307" height="55.09002407853307" width="395.52" id="textblock"><g><svg viewBox="0 0 395.52 55.09002407853307" height="55.09002407853307" width="395.52"><g transform="matrix(1,0,0,1,0,0)"><svg width="395.52" viewBox="4.85 -37.1 269.92999999999995 37.6" height="55.09002407853307" data-palette-color="#111111"><path d="M5.6-37.1L5.6-37.1Q5.95-37.1 7.05-37.1 8.15-37.1 9.45-37.08 10.75-37.05 11.85-37.05 12.95-37.05 13.4-37.05L13.4-37.05Q20.35-36.95 24.63-34.85 28.9-32.75 30.88-28.75 32.85-24.75 32.85-18.85L32.85-18.85Q32.85-12.6 30.7-8.4 28.55-4.2 24.1-2.1 19.65 0 12.9 0L12.9 0 5.55 0Q4.85 0 4.85-0.8L4.85-0.8 4.85-36.4Q4.85-36.75 5.03-36.93 5.2-37.1 5.6-37.1L5.6-37.1ZM10.15-33.45L10.15-33.45Q9.65-33.45 9.65-32.75L9.65-32.75 9.65-4.15Q9.65-3.6 10.25-3.6L10.25-3.6 12.15-3.6Q17.7-3.6 21.15-5.08 24.6-6.55 26.23-9.85 27.85-13.15 27.85-18.6L27.85-18.6Q27.85-24.3 26.18-27.53 24.5-30.75 21.08-32.1 17.65-33.45 12.4-33.45L12.4-33.45 10.15-33.45ZM51.05 0.5L51.05 0.5Q47.3 0.5 44.42-1.23 41.55-2.95 39.97-6.03 38.4-9.1 38.4-13.1L38.4-13.1Q38.4-17.25 40.02-20.38 41.65-23.5 44.5-25.25 47.35-27 51.1-27L51.1-27Q54.9-27 57.72-25.23 60.55-23.45 62.12-20.33 63.7-17.2 63.7-13.15L63.7-13.15Q63.7-9.15 62.1-6.08 60.5-3 57.67-1.25 54.85 0.5 51.05 0.5L51.05 0.5ZM51.15-2.65L51.15-2.65Q53.75-2.65 55.6-3.93 57.45-5.2 58.42-7.58 59.4-9.95 59.4-13.25L59.4-13.25Q59.4-16.55 58.4-18.93 57.4-21.3 55.55-22.6 53.7-23.9 51.1-23.9L51.1-23.9Q48.55-23.9 46.65-22.6 44.75-21.3 43.72-18.93 42.7-16.55 42.7-13.25L42.7-13.25Q42.7-10 43.72-7.6 44.75-5.2 46.65-3.93 48.55-2.65 51.15-2.65L51.15-2.65ZM71.6 0L71.6 0Q70.9 0 70.9-0.75L70.9-0.75 70.9-36.4Q70.9-37.1 71.5-37.1L71.5-37.1 76.3-37.1Q76.7-37.1 76.87-37 77.05-36.9 77.15-36.55L77.15-36.55 88.25-7.9Q88.45-7.45 88.65-7.48 88.85-7.5 89.05-7.95L89.05-7.95 100.15-36.45Q100.35-37.1 100.9-37.1L100.9-37.1 105.95-37.1Q106.5-37.1 106.5-36.45L106.5-36.45 106.5-0.75Q106.5 0 105.75 0L105.75 0 102.45 0Q102.05 0 101.87-0.15 101.7-0.3 101.7-0.65L101.7-0.65 101.7-29.25Q101.7-29.5 101.6-29.48 101.5-29.45 101.45-29.25L101.45-29.25 90.45-0.65Q90.2 0 89.5 0L89.5 0 87.1 0Q86.3 0 86.1-0.6L86.1-0.6 75.25-28.95Q75.15-29.2 75.07-29.18 75-29.15 75-28.95L75-28.95 75-0.65Q75-0.3 74.85-0.15 74.7 0 74.3 0L74.3 0 71.6 0ZM119.39-25.85L119.39-0.85Q119.39-0.35 119.22-0.18 119.04 0 118.49 0L118.49 0 115.94 0Q115.49 0 115.34-0.15 115.19-0.3 115.19-0.7L115.19-0.7 115.19-25.8Q115.19-26.5 115.79-26.5L115.79-26.5 118.84-26.5Q119.39-26.5 119.39-25.85L119.39-25.85ZM119.59-36.35L119.59-32.2Q119.59-31.25 118.69-31.25L118.69-31.25 115.79-31.25Q115.34-31.25 115.19-31.48 115.04-31.7 115.04-32.1L115.04-32.1 115.04-36.3Q115.04-37.1 115.74-37.1L115.74-37.1 118.89-37.1Q119.59-37.1 119.59-36.35L119.59-36.35ZM152.79-37.1L155.74-37.1Q156.29-37.1 156.29-36.5L156.29-36.5 156.29-0.6Q156.29-0.3 156.12-0.15 155.94 0 155.64 0L155.64 0 153.19 0Q152.89 0 152.64-0.05 152.39-0.1 152.14-0.4L152.14-0.4 132.84-28.45Q132.59-28.8 132.44-28.75 132.29-28.7 132.29-28.4L132.29-28.4 132.29-0.65Q132.29 0 131.59 0L131.59 0 128.79 0Q128.14 0 128.14-0.65L128.14-0.65 128.14-36.4Q128.14-37.1 128.79-37.1L128.79-37.1 131.64-37.1Q132.04-37.1 132.24-37.02 132.44-36.95 132.69-36.6L132.69-36.6 151.44-9.15Q151.74-8.8 151.97-8.9 152.19-9 152.19-9.3L152.19-9.3 152.19-36.5Q152.19-37.1 152.79-37.1L152.79-37.1ZM180.24-3.2L180.24-3.2Q178.39-1.4 176.21-0.45 174.04 0.5 171.34 0.5L171.34 0.5Q167.44 0.5 165.21-1.5 162.99-3.5 162.99-6.75L162.99-6.75Q162.99-9.4 164.49-11.33 165.99-13.25 168.94-14.38 171.89-15.5 176.19-15.75L176.19-15.75 180.09-16.05Q180.39-16.1 180.64-16.25 180.89-16.4 180.89-16.8L180.89-16.8 180.89-18.15Q180.89-20.85 179.21-22.43 177.54-24 174.69-24L174.69-24Q172.49-24 170.71-23 168.94-22 167.54-20L167.54-20Q167.34-19.75 167.21-19.68 167.09-19.6 166.79-19.7L166.79-19.7 164.09-20.6Q163.94-20.7 163.86-20.85 163.79-21 163.99-21.4L163.99-21.4Q165.49-24 168.21-25.5 170.94-27 174.89-27L174.89-27Q178.24-27 180.46-25.98 182.69-24.95 183.81-23.03 184.94-21.1 184.94-18.45L184.94-18.45 184.94-0.75Q184.94-0.3 184.79-0.15 184.64 0 184.29 0L184.29 0 181.74 0Q181.39 0 181.24-0.23 181.09-0.45 181.04-0.8L181.04-0.8 180.99-3.1Q180.84-3.8 180.24-3.2L180.24-3.2ZM180.89-12.7L180.89-12.7Q180.89-13.55 180.19-13.5L180.19-13.5 176.89-13.2Q174.59-13.1 172.79-12.63 170.99-12.15 169.74-11.4 168.49-10.65 167.84-9.63 167.19-8.6 167.19-7.25L167.19-7.25Q167.19-5.05 168.71-3.83 170.24-2.6 172.84-2.6L172.84-2.6Q174.44-2.6 175.91-3.18 177.39-3.75 178.49-4.65L178.49-4.65Q179.64-5.6 180.26-6.6 180.89-7.6 180.89-8.55L180.89-8.55 180.89-12.7ZM205.09-23.35L198.74-23.35Q198.34-23.35 198.34-22.95L198.34-22.95 198.34-7.1Q198.34-4.75 199.14-3.95 199.94-3.15 201.54-3.15L201.54-3.15 204.99-3.15Q205.24-3.15 205.39-3.03 205.54-2.9 205.54-2.6L205.54-2.6 205.49-0.9Q205.49-0.4 204.89-0.25L204.89-0.25Q204.39-0.15 203.46-0.1 202.54-0.05 201.66-0.03 200.79 0 200.19 0L200.19 0Q197.04 0 195.59-1.48 194.14-2.95 194.14-6.15L194.14-6.15 194.14-22.85Q194.14-23.35 193.64-23.35L193.64-23.35 189.64-23.35Q189.09-23.35 189.09-23.9L189.09-23.9 189.09-26Q189.09-26.5 189.59-26.5L189.59-26.5 193.84-26.5Q194.19-26.5 194.19-26.9L194.19-26.9 194.74-34.85Q194.79-35.5 195.29-35.5L195.29-35.5 197.79-35.5Q198.39-35.5 198.39-34.8L198.39-34.8 198.39-26.9Q198.39-26.5 198.79-26.5L198.79-26.5 205.09-26.5Q205.64-26.5 205.64-26.05L205.64-26.05 205.64-23.9Q205.64-23.35 205.09-23.35L205.09-23.35ZM215.28-25.85L215.28-0.85Q215.28-0.35 215.11-0.18 214.93 0 214.38 0L214.38 0 211.83 0Q211.38 0 211.23-0.15 211.08-0.3 211.08-0.7L211.08-0.7 211.08-25.8Q211.08-26.5 211.68-26.5L211.68-26.5 214.73-26.5Q215.28-26.5 215.28-25.85L215.28-25.85ZM215.48-36.35L215.48-32.2Q215.48-31.25 214.58-31.25L214.58-31.25 211.68-31.25Q211.23-31.25 211.08-31.48 210.93-31.7 210.93-32.1L210.93-32.1 210.93-36.3Q210.93-37.1 211.63-37.1L211.63-37.1 214.78-37.1Q215.48-37.1 215.48-36.35L215.48-36.35ZM234.13 0.5L234.13 0.5Q230.38 0.5 227.51-1.23 224.63-2.95 223.06-6.03 221.48-9.1 221.48-13.1L221.48-13.1Q221.48-17.25 223.11-20.38 224.73-23.5 227.58-25.25 230.43-27 234.18-27L234.18-27Q237.98-27 240.81-25.23 243.63-23.45 245.21-20.33 246.78-17.2 246.78-13.15L246.78-13.15Q246.78-9.15 245.18-6.08 243.58-3 240.76-1.25 237.93 0.5 234.13 0.5L234.13 0.5ZM234.23-2.65L234.23-2.65Q236.83-2.65 238.68-3.93 240.53-5.2 241.51-7.58 242.48-9.95 242.48-13.25L242.48-13.25Q242.48-16.55 241.48-18.93 240.48-21.3 238.63-22.6 236.78-23.9 234.18-23.9L234.18-23.9Q231.63-23.9 229.73-22.6 227.83-21.3 226.81-18.93 225.78-16.55 225.78-13.25L225.78-13.25Q225.78-10 226.81-7.6 227.83-5.2 229.73-3.93 231.63-2.65 234.23-2.65L234.23-2.65ZM253.68 0L253.68 0Q252.98 0 252.98-0.65L252.98-0.65 252.98-25.85Q252.98-26.5 253.53-26.5L253.53-26.5 256.53-26.5Q257.08-26.5 257.08-25.95L257.08-25.95 257.08-23.05Q257.08-22.8 257.18-22.75 257.28-22.7 257.53-22.9L257.53-22.9Q259.18-24.2 260.6-25.13 262.03-26.05 263.53-26.53 265.03-27 266.73-27L266.73-27Q270.63-27 272.7-24.9 274.78-22.8 274.78-19.45L274.78-19.45 274.78-0.8Q274.78 0 274.03 0L274.03 0 271.23 0Q270.88 0 270.73-0.18 270.58-0.35 270.58-0.65L270.58-0.65 270.58-18.5Q270.58-20.95 269.33-22.33 268.08-23.7 265.38-23.7L265.38-23.7Q263.93-23.7 262.65-23.23 261.38-22.75 260.08-21.88 258.78-21 257.18-19.65L257.18-19.65 257.18-0.75Q257.18 0 256.43 0L256.43 0 253.68 0Z" opacity="1" transform="matrix(1,0,0,1,0,0)" fill="#000000" class="wordmark-text-0" data-fill-palette-color="primary" id="text-0"></path></svg></g></svg></g></svg></g></svg></g><g><svg viewBox="0 0 76.14349192173421 76.13441327653271" height="76.13441327653271" width="76.14349192173421"><g><svg xmlns="http://www.w3.org/2000/svg" xmlns:xlink="http://www.w3.org/1999/xlink" version="1.1" x="0" y="0" viewBox="0 0 99.99992306523872 99.988" enable-background="new 0 0 100 100" xml:space="preserve" height="76.13441327653271" width="76.14349192173421" class="icon-icon-0" data-fill-palette-color="accent" id="icon-0"><g fill="#da5407" data-fill-palette-color="accent"><path fill-rule="evenodd" clip-rule="evenodd" d="M47.102 0c1.928 0 3.856 0 5.784 0 8.338 0.642 15.042 2.917 20.99 5.95-9.545 9.958-19.296 19.708-29.253 29.252-2.969-3.846-6.214-6.932-13.221-6.279-6.848 0.638-12.008 6.789-12.065 13.552-0.093 11.1 12.636 17.426 21.981 11.239 2.455-1.625 4.708-4.378 6.941-6.611 6.658-6.659 13.369-13.473 19.997-20.164 5.471 4.927 10.706 10.542 16.196 16.032 0.574 0.574 2.305 1.916 2.314 2.148 0.021 0.503-3.571 3.738-3.967 4.132-4.035 4.035-8.129 8.161-12.23 11.9-2.845-5.982-12.565-8.104-18.84-4.297-3.834 2.326-6.286 6.06-6.446 11.238-0.221 7.125 4.855 13.32 11.9 14.047 9.767 1.009 13.735-5.969 18.51-10.742 8.042-8.042 16.394-16.425 24.295-23.963 0.308 16.392-5.383 28.214-13.388 36.524-8.017 8.322-18.679 14.98-33.715 16.03-1.928 0-3.855 0-5.784 0-14.023-1.231-24.828-6.812-32.558-14.543C6.814 77.715 1.225 66.916 0 52.887c0-1.929 0-3.857 0-5.785C0.812 33.583 7.182 22 14.709 14.544 22.682 6.645 33.328 1.089 47.102 0z" fill="#000000" data-fill-palette-color="accent"></path></g></svg></g></svg></g></svg></g><defs></defs></svg><rect width="395.52" height="59.90875662376603" fill="none" stroke="none" visibility="hidden"></rect></g></svg></g></svg>